# xmcd
#
# Track frame offsets:
#	150
#	19440
#	36030
#	55925
#	73747
#	84570
#	107567
#	123182
#	143862
#	168987
#	182460
#	200507
#
# Disc length: 2948 seconds
#
# Revision: 0
# Processed by: cddbd v1.5.2PL0 Copyright (c) Steve Scherf et al.
# Submitted via: audiograbber 1.83.01
#
DISCID=a20b820c
DTITLE=Boat Thief - Shine
DYEAR=2006
DGENRE=Folk
TTITLE0=that summer
TTITLE1=the line
TTITLE2=all these days
TTITLE3=take this weight
TTITLE4=1000 miles away
TTITLE5=let us come home
TTITLE6=this bus runs on sunshine
TTITLE7=flotsam and jetsam
TTITLE8=under construction
TTITLE9=the miracle
TTITLE10=cabin boys song
TTITLE11=april
EXTD=
EXTT0=
EXTT1=
EXTT2=
EXTT3=
EXTT4=
EXTT5=
EXTT6=
EXTT7=
EXTT8=
EXTT9=
EXTT10=
EXTT11=
PLAYORDER=
